<?xml version="1.0" encoding="UTF-8" standalone="no"?>
<!DOCTYPE svg PUBLIC "-//W3C//DTD SVG 1.1//EN"
 "http://www.w3.org/Graphics/SVG/1.1/DTD/svg11.dtd">
<!-- Generated by graphviz version 2.43.0 (0)
 -->
<!-- Title: LangChain Pages: 1 -->
<svg width="1241pt" height="227pt"
 viewBox="0.00 0.00 1240.67 227.00" xmlns="http://www.w3.org/2000/svg" xmlns:xlink="http://www.w3.org/1999/xlink">
<g id="graph0" class="graph" transform="scale(1 1) rotate(0) translate(4 223)">
<title>LangChain</title>
<polygon fill="white" stroke="transparent" points="-4,4 -4,-223 1236.67,-223 1236.67,4 -4,4"/>
<g id="clust1" class="cluster">
<title>cluster_RAG</title>
<polygon fill="none" stroke="black" stroke-dasharray="5,2" points="195.69,-118 195.69,-211 1149.07,-211 1149.07,-118 195.69,-118"/>
<text text-anchor="middle" x="672.38" y="-195.8" font-family="Times,serif" font-size="14.00">RAG 경로</text>
</g>
<!-- A -->
<g id="node1" class="node">
<title>A</title>
<ellipse fill="none" stroke="black" cx="53.95" cy="-117" rx="53.89" ry="18"/>
<text text-anchor="middle" x="53.95" y="-113.3" font-family="Times,serif" font-size="14.00">사용자 입력</text>
</g>
<!-- B -->
<g id="node2" class="node">
<title>B</title>
<ellipse fill="none" stroke="black" cx="258.28" cy="-91" rx="88.28" ry="18"/>
<text text-anchor="middle" x="258.28" y="-87.3" font-family="Times,serif" font-size="14.00">PromptTemplate</text>
</g>
<!-- A&#45;&gt;B -->
<g id="edge3" class="edge">
<title>A&#45;&gt;B</title>
<path fill="none" stroke="black" d="M104.44,-110.64C125.12,-107.98 149.74,-104.82 173.11,-101.82"/>
<polygon fill="black" stroke="black" points="173.56,-105.29 183.03,-100.54 172.67,-98.34 173.56,-105.29"/>
</g>
<!-- Q -->
<g id="node9" class="node">
<title>Q</title>
<ellipse fill="none" stroke="black" cx="258.28" cy="-145" rx="54.69" ry="18"/>
<text text-anchor="middle" x="258.28" y="-141.3" font-family="Times,serif" font-size="14.00">Retriever</text>
</g>
<!-- A&#45;&gt;Q -->
<g id="edge10" class="edge">
<title>A&#45;&gt;Q</title>
<path fill="none" stroke="black" stroke-dasharray="1,5" d="M103.93,-123.78C132.07,-127.67 167.63,-132.59 197.42,-136.72"/>
<polygon fill="black" stroke="black" points="197.31,-140.23 207.7,-138.14 198.27,-133.3 197.31,-140.23"/>
<text text-anchor="middle" x="138.89" y="-133.8" font-family="Times,serif" font-size="14.00">질의</text>
</g>
<!-- C -->
<g id="node3" class="node">
<title>C</title>
<ellipse fill="none" stroke="black" cx="541.36" cy="-70" rx="157.87" ry="26.74"/>
<text text-anchor="middle" x="541.36" y="-73.8" font-family="Times,serif" font-size="14.00">Chat/LLM</text>
<text text-anchor="middle" x="541.36" y="-58.8" font-family="Times,serif" font-size="14.00">(OpenAI·Anthropic·Ollama…)</text>
</g>
<!-- B&#45;&gt;C -->
<g id="edge4" class="edge">
<title>B&#45;&gt;C</title>
<path fill="none" stroke="black" d="M341.72,-84.84C355.93,-83.78 371.12,-82.64 386.51,-81.49"/>
<polygon fill="black" stroke="black" points="386.94,-84.97 396.65,-80.74 386.42,-77.99 386.94,-84.97"/>
</g>
<!-- L -->
<g id="node7" class="node">
<title>L</title>
<ellipse fill="none" stroke="black" cx="541.36" cy="-145" rx="46.29" ry="18"/>
<text text-anchor="middle" x="541.36" y="-141.3" font-family="Times,serif" font-size="14.00">문서 청크</text>
</g>
<!-- B&#45;&gt;L -->
<g id="edge9" class="edge">
<title>B&#45;&gt;L</title>
<path fill="none" stroke="black" stroke-dasharray="1,5" d="M323.06,-103.25C373.46,-112.94 442.86,-126.27 489.55,-135.24"/>
<polygon fill="black" stroke="black" points="488.97,-138.69 499.45,-137.14 490.29,-131.82 488.97,-138.69"/>
</g>
<!-- D -->
<g id="node4" class="node">
<title>D</title>
<ellipse fill="none" stroke="black" cx="980.56" cy="-81" rx="126.64" ry="26.74"/>
<text text-anchor="middle" x="980.56" y="-84.8" font-family="Times,serif" font-size="14.00">Tools</text>
<text text-anchor="middle" x="980.56" y="-69.8" font-family="Times,serif" font-size="14.00">(검색·코드실행·웹크롤러 등)</text>
</g>
<!-- C&#45;&gt;D -->
<g id="edge5" class="edge">
<title>C&#45;&gt;D</title>
<path fill="none" stroke="black" d="M697.42,-73.9C745.46,-75.11 797.98,-76.43 844.55,-77.6"/>
<polygon fill="black" stroke="black" points="844.61,-81.11 854.7,-77.86 844.79,-74.11 844.61,-81.11"/>
<text text-anchor="middle" x="759.54" y="-80.8" font-family="Times,serif" font-size="14.00">Tool Calling</text>
</g>
<!-- E -->
<g id="node5" class="node">
<title>E</title>
<ellipse fill="none" stroke="black" cx="980.56" cy="-18" rx="73.39" ry="18"/>
<text text-anchor="middle" x="980.56" y="-14.3" font-family="Times,serif" font-size="14.00">OutputParser</text>
</g>
<!-- C&#45;&gt;E -->
<g id="edge7" class="edge">
<title>C&#45;&gt;E</title>
<path fill="none" stroke="black" d="M671.17,-54.68C746.96,-45.66 840.18,-34.58 904.17,-26.97"/>
<polygon fill="black" stroke="black" points="904.66,-30.43 914.18,-25.78 903.84,-23.48 904.66,-30.43"/>
</g>
<!-- D&#45;&gt;C -->
<g id="edge6" class="edge">
<title>D&#45;&gt;C</title>
<path fill="none" stroke="black" d="M858.8,-73.35C839.82,-72.39 820.4,-71.55 802.04,-71 772.18,-70.1 740.39,-69.6 709.65,-69.35"/>
<polygon fill="black" stroke="black" points="709.3,-65.85 699.27,-69.28 709.25,-72.85 709.3,-65.85"/>
</g>
<!-- F -->
<g id="node6" class="node">
<title>F</title>
<ellipse fill="none" stroke="black" cx="1205.37" cy="-18" rx="27.1" ry="18"/>
<text text-anchor="middle" x="1205.37" y="-14.3" font-family="Times,serif" font-size="14.00">응답</text>
</g>
<!-- E&#45;&gt;F -->
<g id="edge8" class="edge">
<title>E&#45;&gt;F</title>
<path fill="none" stroke="black" d="M1054.21,-18C1092.15,-18 1136.94,-18 1167.67,-18"/>
<polygon fill="black" stroke="black" points="1167.92,-21.5 1177.92,-18 1167.92,-14.5 1167.92,-21.5"/>
</g>
<!-- V -->
<g id="node8" class="node">
<title>V</title>
<ellipse fill="none" stroke="black" cx="980.56" cy="-153" rx="160.53" ry="26.74"/>
<text text-anchor="middle" x="980.56" y="-156.8" font-family="Times,serif" font-size="14.00">VectorStore</text>
<text text-anchor="middle" x="980.56" y="-141.8" font-family="Times,serif" font-size="14.00">(FAISS·PGVector·Pinecone 등)</text>
</g>
<!-- L&#45;&gt;V -->
<g id="edge1" class="edge">
<title>L&#45;&gt;V</title>
<path fill="none" stroke="black" d="M597.55,-146.01C651.12,-146.99 735.19,-148.53 810.84,-149.91"/>
<polygon fill="black" stroke="black" points="597.56,-142.51 587.5,-145.83 597.43,-149.51 597.56,-142.51"/>
<polygon fill="black" stroke="black" points="810.91,-153.41 820.97,-150.1 811.04,-146.42 810.91,-153.41"/>
</g>
<!-- Q&#45;&gt;L -->
<g id="edge2" class="edge">
<title>Q&#45;&gt;L</title>
<path fill="none" stroke="black" d="M320.51,-139.31C370.13,-137.82 439.35,-137.9 486.79,-139.56"/>
<polygon fill="black" stroke="black" points="320.39,-135.82 310.51,-139.65 320.62,-142.81 320.39,-135.82"/>
<polygon fill="black" stroke="black" points="486.73,-143.06 496.86,-139.96 487,-136.07 486.73,-143.06"/>
</g>
<!-- Q&#45;&gt;L -->
<g id="edge11" class="edge">
<title>Q&#45;&gt;L</title>
<path fill="none" stroke="black" d="M310.51,-150.35C360.43,-152.19 436.03,-152.22 486.75,-150.44"/>
<polygon fill="black" stroke="black" points="487,-153.93 496.86,-150.04 486.73,-146.94 487,-153.93"/>
</g>
</g>
</svg>
