<?xml version="1.0" encoding="UTF-8" standalone="no"?>
<!DOCTYPE svg PUBLIC "-//W3C//DTD SVG 1.1//EN"
 "http://www.w3.org/Graphics/SVG/1.1/DTD/svg11.dtd">
<!-- Generated by graphviz version 2.43.0 (0)
 -->
<!-- Title: SpringAI Pages: 1 -->
<svg width="1389pt" height="440pt"
 viewBox="0.00 0.00 1389.10 439.87" xmlns="http://www.w3.org/2000/svg" xmlns:xlink="http://www.w3.org/1999/xlink">
<g id="graph0" class="graph" transform="scale(1 1) rotate(0) translate(4 435.87)">
<title>SpringAI</title>
<polygon fill="white" stroke="transparent" points="-4,4 -4,-435.87 1385.1,-435.87 1385.1,4 -4,4"/>
<!-- U -->
<g id="node1" class="node">
<title>U</title>
<ellipse fill="none" stroke="black" cx="79.94" cy="-31" rx="79.89" ry="18"/>
<text text-anchor="middle" x="79.94" y="-27.3" font-family="Times,serif" font-size="14.00">클라이언트/프론트</text>
</g>
<!-- C -->
<g id="node2" class="node">
<title>C</title>
<ellipse fill="none" stroke="black" cx="283.98" cy="-31" rx="87.18" ry="18"/>
<text text-anchor="middle" x="283.98" y="-27.3" font-family="Times,serif" font-size="14.00">REST Controller</text>
</g>
<!-- U&#45;&gt;C -->
<g id="edge1" class="edge">
<title>U&#45;&gt;C</title>
<path fill="none" stroke="black" d="M154.45,-24.48C166.83,-24.27 179.8,-24.2 192.54,-24.28"/>
<polygon fill="black" stroke="black" points="192.67,-27.78 202.7,-24.38 192.73,-20.78 192.67,-27.78"/>
</g>
<!-- C&#45;&gt;U -->
<g id="edge13" class="edge">
<title>C&#45;&gt;U</title>
<path fill="none" stroke="black" d="M202.7,-37.62C190.14,-37.78 177.12,-37.79 164.49,-37.66"/>
<polygon fill="black" stroke="black" points="164.5,-34.16 154.45,-37.52 164.41,-41.16 164.5,-34.16"/>
</g>
<!-- S -->
<g id="node3" class="node">
<title>S</title>
<ellipse fill="none" stroke="black" cx="504.26" cy="-198" rx="96.38" ry="18"/>
<text text-anchor="middle" x="504.26" y="-194.3" font-family="Times,serif" font-size="14.00">Service(@Service)</text>
</g>
<!-- C&#45;&gt;S -->
<g id="edge2" class="edge">
<title>C&#45;&gt;S</title>
<path fill="none" stroke="black" d="M307.93,-48.56C347.31,-78.69 427.81,-140.27 472.18,-174.22"/>
<polygon fill="black" stroke="black" points="470.23,-177.13 480.29,-180.43 474.48,-171.57 470.23,-177.13"/>
</g>
<!-- A -->
<g id="node4" class="node">
<title>A</title>
<ellipse fill="none" stroke="black" cx="863.98" cy="-405" rx="116.85" ry="26.74"/>
<text text-anchor="middle" x="863.98" y="-408.8" font-family="Times,serif" font-size="14.00">Spring AI ChatClient</text>
<text text-anchor="middle" x="863.98" y="-393.8" font-family="Times,serif" font-size="14.00">/OpenAiChatClient</text>
</g>
<!-- S&#45;&gt;A -->
<g id="edge3" class="edge">
<title>S&#45;&gt;A</title>
<path fill="none" stroke="black" d="M516.05,-216.05C538.41,-251.73 593.54,-331.13 662.45,-369 686.4,-382.16 714.16,-390.66 741.25,-396.11"/>
<polygon fill="black" stroke="black" points="740.71,-399.57 751.19,-397.98 742.01,-392.69 740.71,-399.57"/>
</g>
<!-- P -->
<g id="node6" class="node">
<title>P</title>
<ellipse fill="none" stroke="black" cx="863.98" cy="-333" rx="96.33" ry="26.74"/>
<text text-anchor="middle" x="863.98" y="-336.8" font-family="Times,serif" font-size="14.00">PromptTemplate</text>
<text text-anchor="middle" x="863.98" y="-321.8" font-family="Times,serif" font-size="14.00">(빈·프로퍼티 주입)</text>
</g>
<!-- S&#45;&gt;P -->
<g id="edge5" class="edge">
<title>S&#45;&gt;P</title>
<path fill="none" stroke="black" d="M527.21,-215.72C556.32,-238.27 610.13,-276.72 662.45,-297 694.06,-309.25 730.1,-317.38 762.83,-322.75"/>
<polygon fill="black" stroke="black" points="762.45,-326.23 772.88,-324.33 763.54,-319.31 762.45,-326.23"/>
</g>
<!-- R -->
<g id="node7" class="node">
<title>R</title>
<ellipse fill="none" stroke="black" cx="863.98" cy="-261" rx="201.55" ry="26.74"/>
<text text-anchor="middle" x="863.98" y="-264.8" font-family="Times,serif" font-size="14.00">리트리버/RAG</text>
<text text-anchor="middle" x="863.98" y="-249.8" font-family="Times,serif" font-size="14.00">(Elasticsearch·Spring Data·PGVector)</text>
</g>
<!-- S&#45;&gt;R -->
<g id="edge6" class="edge">
<title>S&#45;&gt;R</title>
<path fill="none" stroke="black" d="M545.21,-214.33C566.59,-222.41 593.58,-231.57 618.45,-237 636.73,-240.99 655.92,-244.31 675.18,-247.09"/>
<polygon fill="black" stroke="black" points="674.86,-250.58 685.25,-248.49 675.83,-243.64 674.86,-250.58"/>
<text text-anchor="middle" x="631.45" y="-243.8" font-family="Times,serif" font-size="14.00">옵션</text>
</g>
<!-- SEC -->
<g id="node8" class="node">
<title>SEC</title>
<ellipse fill="none" stroke="black" cx="863.98" cy="-198" rx="83.69" ry="18"/>
<text text-anchor="middle" x="863.98" y="-194.3" font-family="Times,serif" font-size="14.00">Spring Security</text>
</g>
<!-- S&#45;&gt;SEC -->
<g id="edge8" class="edge">
<title>S&#45;&gt;SEC</title>
<path fill="none" stroke="black" d="M600.65,-198C653.04,-198 717.75,-198 769.79,-198"/>
<polygon fill="black" stroke="black" points="770.02,-201.5 780.02,-198 770.02,-194.5 770.02,-201.5"/>
</g>
<!-- CFG -->
<g id="node9" class="node">
<title>CFG</title>
<ellipse fill="none" stroke="black" cx="863.98" cy="-135" rx="126.64" ry="26.74"/>
<text text-anchor="middle" x="863.98" y="-138.8" font-family="Times,serif" font-size="14.00">Spring Config</text>
<text text-anchor="middle" x="863.98" y="-123.8" font-family="Times,serif" font-size="14.00">Actuator/Observability</text>
</g>
<!-- S&#45;&gt;CFG -->
<g id="edge9" class="edge">
<title>S&#45;&gt;CFG</title>
<path fill="none" stroke="black" d="M575.08,-185.7C626.5,-176.65 697.35,-164.17 755.9,-153.86"/>
<polygon fill="black" stroke="black" points="756.69,-157.27 765.93,-152.09 755.48,-150.38 756.69,-157.27"/>
</g>
<!-- DB -->
<g id="node10" class="node">
<title>DB</title>
<ellipse fill="none" stroke="black" cx="863.98" cy="-72" rx="44.39" ry="18"/>
<text text-anchor="middle" x="863.98" y="-68.3" font-family="Times,serif" font-size="14.00">DB/캐시</text>
</g>
<!-- S&#45;&gt;DB -->
<g id="edge10" class="edge">
<title>S&#45;&gt;DB</title>
<path fill="none" stroke="black" d="M526.58,-180.32C555.42,-157.44 609.4,-118.24 662.45,-99 710.25,-81.66 768.1,-75.3 809.35,-73.04"/>
<polygon fill="black" stroke="black" points="809.65,-76.53 819.47,-72.55 809.31,-69.54 809.65,-76.53"/>
</g>
<!-- RESP -->
<g id="node11" class="node">
<title>RESP</title>
<ellipse fill="none" stroke="black" cx="863.98" cy="-18" rx="50.09" ry="18"/>
<text text-anchor="middle" x="863.98" y="-14.3" font-family="Times,serif" font-size="14.00">응답 DTO</text>
</g>
<!-- S&#45;&gt;RESP -->
<g id="edge11" class="edge">
<title>S&#45;&gt;RESP</title>
<path fill="none" stroke="black" d="M517.5,-180.09C541.16,-147.06 596.7,-76.99 662.45,-45 706.57,-23.53 762.23,-17.45 803.71,-16.36"/>
<polygon fill="black" stroke="black" points="804,-19.86 813.94,-16.18 803.88,-12.86 804,-19.86"/>
</g>
<!-- M -->
<g id="node5" class="node">
<title>M</title>
<ellipse fill="none" stroke="black" cx="1241.8" cy="-405" rx="139.1" ry="26.74"/>
<text text-anchor="middle" x="1241.8" y="-408.8" font-family="Times,serif" font-size="14.00">모델</text>
<text text-anchor="middle" x="1241.8" y="-393.8" font-family="Times,serif" font-size="14.00">(OpenAI·Azure·Ollama 등)</text>
</g>
<!-- A&#45;&gt;M -->
<g id="edge4" class="edge">
<title>A&#45;&gt;M</title>
<path fill="none" stroke="black" d="M980.81,-405C1015.9,-405 1054.94,-405 1091.88,-405"/>
<polygon fill="black" stroke="black" points="1092.24,-408.5 1102.24,-405 1092.24,-401.5 1092.24,-408.5"/>
</g>
<!-- R&#45;&gt;S -->
<g id="edge7" class="edge">
<title>R&#45;&gt;S</title>
<path fill="none" stroke="black" d="M741.53,-239.61C689.85,-230.51 631.03,-220.15 585,-212.04"/>
<polygon fill="black" stroke="black" points="585.54,-208.58 575.08,-210.3 584.32,-215.48 585.54,-208.58"/>
</g>
<!-- RESP&#45;&gt;C -->
<g id="edge12" class="edge">
<title>RESP&#45;&gt;C</title>
<path fill="none" stroke="black" d="M813.68,-19.11C717.94,-21.26 505.34,-26.04 380.86,-28.84"/>
<polygon fill="black" stroke="black" points="380.49,-25.35 370.58,-29.07 380.65,-32.35 380.49,-25.35"/>
</g>
</g>
</svg>
